<svg xmlns="http://www.w3.org/2000/svg" width="34.568" height="32.106" viewBox="0 0 34.568 32.106">
  <path id="Icon_awesome-whatsapp" data-name="Icon awesome-whatsapp" d="M44.524,37.681c-.843-.429-5.03-2.484-5.812-2.76-.782-.291-1.349-.429-1.917.429s-2.193,2.76-2.7,3.343c-.491.567-1,.644-1.84.215-5-2.5-8.281-4.462-11.578-10.121-.874-1.5.874-1.4,2.5-4.646a1.576,1.576,0,0,0-.077-1.487c-.215-.429-1.917-4.616-2.622-6.318-.69-1.656-1.4-1.426-1.917-1.457-.491-.031-1.058-.031-1.625-.031a3.151,3.151,0,0,0-2.27,1.058,9.559,9.559,0,0,0-2.975,7.1c0,4.186,3.052,8.235,3.466,8.8.429.567,6,9.155,14.537,12.851,5.4,2.331,7.514,2.53,10.213,2.132,1.641-.245,5.03-2.055,5.735-4.048a7.114,7.114,0,0,0,.491-4.048C45.934,38.31,45.367,38.1,44.524,37.681Z" transform="translate(-11.692 -14.847)" fill="#ffca05"/>
</svg>
